<?xml version="1.0" encoding="UTF-8"?>
<svg width="263px" height="88px" viewBox="0 0 263 88" version="1.1" xmlns="http://www.w3.org/2000/svg" xmlns:xlink="http://www.w3.org/1999/xlink">
    <!-- Generator: Sketch 52.2 (67145) - http://www.bohemiancoding.com/sketch -->
    <title>IRWIN-Logo-White</title>
    <desc>Created with Sketch.</desc>
    <defs>
        <polygon id="path-1" points="0.06 0.846 61.441 0.846 61.441 63.94 0.06 63.94"></polygon>
    </defs>
    <g id="IRWIN-Logo-White" stroke="none" stroke-width="1" fill="none" fill-rule="evenodd">
        <g id="IRWIN-Logo-White-RGB" transform="translate(1.000000, 1.000000)">
            <polyline id="Fill-1" fill="#FFFFFE" points="198.511 23.51 190.277 52.039 182.154 23.51 177.074 23.51 168.978 51.945 160.906 23.51 153.993 23.51 166.389 67.183 171.554 67.183 179.614 38.877 187.674 67.183 192.828 67.183 205.433 23.51 198.511 23.51"></polyline>
            <path d="M134.833,46.242 L134.169,46.242 C133.947,46.232 133.728,46.208 133.503,46.208 L124.08,46.208 L124.08,30.059 L134.833,30.059 C139.294,30.059 142.924,33.689 142.924,38.151 C142.924,42.612 139.294,46.242 134.833,46.242 Z M143.441,50.094 C147.149,47.414 149.575,43.065 149.575,38.151 C149.575,30.588 143.849,24.345 136.506,23.51 L117.43,23.51 L117.43,67.183 L124.08,67.183 L124.08,52.893 L134.168,52.893 C138.319,53.233 141.594,56.714 141.594,60.951 L141.594,67.183 L148.245,67.183 L148.245,60.951 C148.245,56.653 146.385,52.791 143.441,50.094 Z" id="Fill-2" fill="#FFFFFE"></path>
            <polyline id="Fill-3" fill="#FFFFFE" points="254.274 23.51 254.274 53.33 233.932 23.51 228.78 23.51 228.78 67.183 235.431 67.183 235.431 37.509 255.673 67.183 260.925 67.183 260.925 23.51 254.274 23.51"></polyline>
            <polygon id="Fill-4" fill="#FFFFFE" points="212.754 67.183 219.405 67.183 219.405 23.51 212.754 23.51"></polygon>
            <polygon id="Fill-5" fill="#FFFFFE" points="98.475 67.183 105.126 67.183 105.126 23.51 98.475 23.51"></polygon>
            <path d="M60.558,51.748 C60.371,51.727 60.175,51.595 60.011,51.348 C59.684,50.854 59.617,50.101 59.864,49.67 C61.652,46.533 63.318,43.367 64.859,40.171 C65.047,39.776 65.459,39.854 65.776,40.341 C66.092,40.826 66.193,41.536 66.004,41.93 C64.473,45.132 62.818,48.307 61.043,51.453 C60.921,51.671 60.744,51.766 60.558,51.748" id="Fill-6" fill="#FFFFFE"></path>
            <path d="M45.129,50.499 C44.871,50.483 44.599,50.339 44.375,50.079 C43.925,49.55 43.838,48.744 44.184,48.274 C46.668,44.883 48.984,41.446 51.126,37.967 C51.387,37.542 51.942,37.618 52.365,38.14 C52.785,38.66 52.913,39.424 52.654,39.848 C50.538,43.333 48.252,46.775 45.801,50.172 C45.63,50.408 45.386,50.514 45.129,50.499" id="Fill-7" fill="#FFFFFE"></path>
            <path d="M35.193,49.965 C34.882,49.952 34.556,49.808 34.288,49.539 C29.86,45.097 25.055,40.863 19.894,36.841 C19.168,36.275 18.966,35.418 19.446,34.923 C19.921,34.429 20.888,34.487 21.603,35.054 C26.685,39.084 31.419,43.319 35.784,47.754 C36.313,48.29 36.409,49.124 36,49.617 C35.795,49.863 35.501,49.979 35.193,49.965" id="Fill-8" fill="#FFFFFE"></path>
            <path d="M53.774,73.735 C53.557,73.742 53.347,73.619 53.194,73.372 C50.705,69.331 47.99,65.441 45.062,61.701 C44.656,61.181 44.635,60.359 45.015,59.858 C45.392,59.362 46.024,59.378 46.426,59.894 C49.323,63.626 52.011,67.504 54.478,71.528 C54.781,72.019 54.741,72.833 54.388,73.342 C54.211,73.598 53.989,73.73 53.774,73.735" id="Fill-9" fill="#FFFFFE"></path>
            <path d="M49.926,29.253 C49.695,29.211 49.434,29.055 49.199,28.787 C45.342,24.416 41.189,20.173 36.752,16.062 C36.133,15.487 35.845,14.695 36.114,14.286 C36.38,13.881 37.098,14.017 37.712,14.591 C42.112,18.707 46.231,22.951 50.059,27.318 C50.526,27.849 50.711,28.61 50.475,29.014 C50.357,29.216 50.156,29.295 49.926,29.253" id="Fill-10" fill="#FFFFFE"></path>
            <path d="M63.882,32.072 C63.711,32.034 63.517,31.882 63.341,31.635 C60.469,27.589 57.387,23.633 54.101,19.769 C53.646,19.234 53.423,18.499 53.607,18.125 C53.789,17.755 54.305,17.884 54.758,18.42 C58.028,22.284 61.097,26.236 63.957,30.276 C64.308,30.771 64.454,31.479 64.285,31.853 C64.2,32.039 64.052,32.111 63.882,32.072" id="Fill-11" fill="#FFFFFE"></path>
            <path d="M17.925,24.651 C17.889,24.651 17.851,24.649 17.814,24.646 C17.484,24.616 17.119,24.471 16.811,24.249 C16.445,23.984 16.191,23.625 16.163,23.337 C16.15,23.193 16.198,23.124 16.235,23.084 C19.436,19.698 22.445,16.195 25.18,12.672 C25.208,12.636 25.287,12.615 25.387,12.615 C25.615,12.615 25.999,12.73 26.395,13.052 C27,13.543 27.116,14.084 27.03,14.198 C24.386,17.68 21.475,21.148 18.377,24.505 C18.292,24.597 18.127,24.651 17.925,24.651" id="Fill-12" fill="#FFFFFE"></path>
            <path d="M60.811,73.564 C60.626,73.569 60.446,73.448 60.316,73.21 C60.056,72.727 60.093,71.942 60.399,71.452 C62.618,67.918 64.693,64.363 66.621,60.788 C66.856,60.348 67.253,60.375 67.506,60.845 C67.757,61.311 67.77,62.049 67.534,62.488 C65.614,66.074 63.548,69.642 61.339,73.191 C61.187,73.436 60.996,73.561 60.811,73.564" id="Fill-13" fill="#FFFFFE"></path>
            <path d="M38.103,16.135 C34.074,15.379 29.923,14.681 25.65,14.047 C23.924,9.63 21.953,5.204 19.731,0.769 C24.305,1.593 28.746,2.489 33.057,3.455 C34.949,7.687 36.63,11.914 38.103,16.135" id="Fill-14" fill="#FFFFFE"></path>
            <path d="M55.07,19.848 C52.19,19.122 49.242,18.432 46.226,17.778 C44.913,13.701 43.417,9.621 41.733,5.537 C44.951,6.362 48.094,7.228 51.163,8.135 C52.626,12.04 53.928,15.945 55.07,19.848" id="Fill-15" fill="#FFFFFE"></path>
            <path d="M59.687,40.7 C57.027,40.28 54.307,39.887 51.524,39.518 C50.841,35.424 49.987,31.347 48.96,27.288 C51.856,27.816 54.686,28.375 57.452,28.965 C58.348,32.859 59.093,36.771 59.687,40.7" id="Fill-16" fill="#FFFFFE"></path>
            <path d="M44.041,38.608 C40.336,38.196 36.52,37.828 32.591,37.504 C31.697,33.092 30.579,28.698 29.235,24.323 C33.33,24.818 37.307,25.369 41.168,25.972 C42.319,30.166 43.276,34.378 44.041,38.608" id="Fill-17" fill="#FFFFFE"></path>
            <path d="M46.319,61.527 C42.742,61.457 39.059,61.413 35.266,61.396 C35.157,56.843 34.828,52.337 34.278,47.875 C38.124,48.066 41.857,48.294 45.483,48.558 C45.952,52.839 46.231,57.162 46.319,61.527" id="Fill-18" fill="#FFFFFE"></path>
            <g id="Group-23" transform="translate(0.000000, 21.000000)">
                <mask id="mask-2" fill="white">
                    <use xlink:href="#path-1"></use>
                </mask>
                <g id="Clip-20"></g>
                <path d="M61.441,41.007 C58.869,40.892 56.238,40.793 53.548,40.71 C53.473,36.484 53.226,32.298 52.809,28.152 C55.535,28.397 58.2,28.662 60.806,28.95 C61.168,32.932 61.38,36.951 61.441,41.007" id="Fill-19" fill="#FFFFFE" mask="url(#mask-2)"></path>
                <path d="M60.292,63.337 C57.677,63.553 55.003,63.774 52.269,64 C52.83,59.514 53.207,55.095 53.406,50.74 C56.098,50.692 58.731,50.656 61.305,50.63 C61.126,54.806 60.79,59.042 60.292,63.337" id="Fill-21" fill="#FFFFFE" mask="url(#mask-2)"></path>
                <path d="M21.769,15.745 C16.262,15.423 10.533,15.182 4.571,15.029 C3.353,10.283 1.831,5.555 0,0.846 C6.219,1.169 12.198,1.597 17.947,2.125 C19.478,6.646 20.751,11.187 21.769,15.745" id="Fill-22" fill="#FFFFFE" mask="url(#mask-2)"></path>
            </g>
            <path d="M71.276,42.762 C69.276,42.363 67.239,41.981 65.165,41.615 C64.629,37.807 63.955,34.016 63.146,30.243 C65.299,30.752 67.414,31.28 69.49,31.828 C70.207,35.456 70.802,39.1 71.276,42.762" id="Fill-24" fill="#FFFFFE"></path>
            <path d="M72.661,62.625 C70.723,62.496 68.75,62.377 66.742,62.268 C66.69,58.337 66.5,54.442 66.174,50.581 C68.207,50.836 70.204,51.104 72.166,51.385 C72.453,55.099 72.618,58.845 72.661,62.625" id="Fill-25" fill="#FFFFFE"></path>
            <path d="M71.695,83.395 C69.726,83.558 67.721,83.723 65.68,83.892 C66.136,79.736 66.445,75.636 66.611,71.592 C68.621,71.583 70.595,71.581 72.535,71.586 C72.384,75.471 72.105,79.407 71.695,83.395" id="Fill-26" fill="#FFFFFE"></path>
        </g>
    </g>
</svg>